<?xml version="1.0" encoding="utf-8"?>
<!-- Generator: Adobe Illustrator 21.0.0, SVG Export Plug-In . SVG Version: 6.00 Build 0)  -->
<svg version="1.1" id="Capa_1" xmlns="http://www.w3.org/2000/svg" xmlns:xlink="http://www.w3.org/1999/xlink" x="0px" y="0px"
	 viewBox="0 0 293.9 247.1" style="enable-background:new 0 0 293.9 247.1;" xml:space="preserve">
<style type="text/css">
	.st0{fill:#FFDAC1;}
	.st1{fill:#FF9AA2;}
	.st2{fill:#B5EAD7;}
	.st3{fill:url(#SVGID_1_);}
</style>
<rect x="100.5" y="5.3" class="st0" width="113.6" height="67.9"/>
<rect x="100.5" y="89.6" class="st0" width="113.6" height="67.9"/>
<rect x="100.5" y="173.9" class="st1" width="113.6" height="67.9"/>
<g>
	<path class="st2" d="M29.3,123.6c5.1,2.8,9.5,6.5,12.9,11.2c4.3,6.1,6.5,12.9,7.5,20.2c0.5,3.7,0.5,7.3,0.5,11
		c0,8.2-0.1,16.3,0,24.5c0.1,7.5,1.1,14.8,4,21.8c4,9.8,11,16.4,21,19.8c1.1,0.4,1.3,0.8,0.9,1.9c-1.4,4.1-2.8,8.2-4.1,12.4
		c-0.2,0.5-0.3,0.8-1,0.6c-11.1-3.3-21.4-8.2-29.6-16.7c-6.8-7-10.9-15.5-12.9-25c-1.2-5.6-1.7-11.2-1.7-16.9c0-8.9,0.1-17.8,0-26.8
		c0-5.2-0.8-10.3-2.8-15.2c-3.1-7.4-8.7-11.6-16.4-13.2c-2.1-0.4-4.3-0.7-6.4-0.7c-0.9,0-1-0.3-1-1.1c0-5.4,0-10.7,0-16.1
		c0-1,0.3-1.2,1.2-1.2c4.2-0.1,8.3-0.8,12.1-2.5c6.6-3.1,10.2-8.6,12-15.4c1-3.6,1.4-7.4,1.4-11.1c0.1-10.3-0.1-20.6,0.1-30.8
		c0.2-9.2,2.1-18,6.3-26.3c5.4-10.7,14.1-18,24.7-23.1c4.2-2,8.5-3.6,13-4.9c0.6-0.2,0.8-0.1,1,0.5c1.4,4.4,4.3,13.9,3.7,14.1
		c-13.8,4.7-21.2,14.9-24.1,28.8c-1,4.9-1.4,10-1.4,15c0,9.7,0.1,19.4-0.1,29.2c-0.1,6.5-1.5,12.8-4.3,18.8
		c-3.3,7-8.4,12.5-15.1,16.4c-0.4,0.2-0.8,0.4-1.1,0.7C29.4,123.5,29.3,123.5,29.3,123.6z"/>
</g>
<linearGradient id="SVGID_1_" gradientUnits="userSpaceOnUse" x1="211.8707" y1="193.0573" x2="293.8701" y2="193.0573">
	<stop  offset="0.1404" style="stop-color:#FF9AA2"/>
	<stop  offset="0.2859" style="stop-color:#FFA0A7;stop-opacity:0.8307"/>
	<stop  offset="0.4753" style="stop-color:#FFB0B6;stop-opacity:0.6104"/>
	<stop  offset="0.6889" style="stop-color:#FFCBCF;stop-opacity:0.3619"/>
	<stop  offset="0.9187" style="stop-color:#FFF0F1;stop-opacity:9.452933e-02"/>
	<stop  offset="1" style="stop-color:#FFFFFF;stop-opacity:0"/>
</linearGradient>
<path class="st3" d="M289.9,210c-17.8,23.9-52.8,31.8-78,31.8v-67.9c17.5,0,25.5,4.5,43.6,7.2c36.9,5.6,24.3-39,28-36.7
	C286.6,146.3,300.6,195.5,289.9,210z"/>
</svg>
