<?xml version="1.0" encoding="UTF-8" standalone="no"?>
<!DOCTYPE svg PUBLIC "-//W3C//DTD SVG 1.1//EN" "http://www.w3.org/Graphics/SVG/1.1/DTD/svg11.dtd">
<svg width="100%" height="100%" viewBox="0 0 448 446" version="1.1" xmlns="http://www.w3.org/2000/svg" xmlns:xlink="http://www.w3.org/1999/xlink" xml:space="preserve" xmlns:serif="http://www.serif.com/" style="fill-rule:evenodd;clip-rule:evenodd;stroke-linejoin:round;stroke-miterlimit:2;">
    <g transform="matrix(1,0,0,1,-448.574,-776.762)">
        <g transform="matrix(1,0,0,1,-794.448,99.991)">
            <g transform="matrix(-0.0941331,0.764601,-0.764601,-0.0941331,2378.32,223.096)">
                <path d="M1281.69,1066.91C1280.18,1139.27 1249.62,1204.24 1201.16,1250.71C1153.51,1296.4 1088.52,1324.03 1017.37,1322.54C947.411,1321.07 884.653,1291.4 839.729,1244.55C795.577,1198.51 769.009,1135.67 770.451,1066.91C771.867,999.361 800.646,938.814 845.886,895.433C890.32,852.823 951.015,827.313 1017.37,828.705C1031.78,828.705 1043.49,817.001 1043.49,802.585C1043.49,788.169 1031.78,776.465 1017.37,776.465C937.801,778.134 866.198,811.367 815.103,864.65C764.78,917.129 733.981,988.55 735.625,1066.91C737.243,1144.08 769.585,1213.47 821.26,1263.02C872.13,1311.8 941.406,1341.54 1017.37,1339.95C1092.13,1338.38 1159.31,1306.93 1207.32,1256.86C1254.55,1207.6 1283.24,1140.47 1281.69,1066.91Z" style="fill:rgb(116,173,124);"/>
            </g>
            <g transform="matrix(-0.514505,0.0943563,-0.0921542,-0.502498,2088.55,1341.22)">
                <path d="M1281.69,1066.91C1279.48,1139.53 1248.04,1204.34 1198.68,1250.16C1151.23,1294.21 1087.18,1320.35 1017.37,1318.11C949.295,1315.93 888.514,1286.54 844.958,1240.71C802.038,1195.56 776.636,1133.99 778.683,1066.91C780.307,1013.68 799.895,965.337 830.976,926.867C861.762,888.761 904.584,861.201 953.23,848.683C963.595,846.017 974.248,844.226 985.109,843.038C995.674,841.883 1006.44,841.622 1017.37,841.972C1038.6,841.972 1055.83,824.323 1055.83,802.585C1055.83,780.847 1038.6,763.198 1017.37,763.198C1002.91,763.66 988.73,764.967 974.877,767.385C960.697,769.86 946.85,773.158 933.441,777.536C871.825,797.653 818.796,836.521 782.173,888.096C746.332,938.571 725.362,1000.37 727.393,1066.91C729.834,1146.91 763.872,1218.58 818.241,1269.05C870.412,1317.49 940.607,1346.83 1017.37,1344.37C1092.38,1341.97 1159.59,1310.11 1207.59,1259.61C1255.22,1209.49 1283.97,1141.37 1281.69,1066.91Z" style="fill:rgb(116,173,124);"/>
            </g>
            <g transform="matrix(1,0,0,1,-151.332,-395.53)">
                <circle cx="1803.75" cy="1379.56" r="24.931" style="fill:rgb(116,173,124);"/>
                <path d="M1804.39,1354.63C1817.86,1354.98 1828.68,1366.01 1828.68,1379.56C1828.68,1393.32 1817.51,1404.49 1803.75,1404.49C1789.99,1404.49 1778.82,1393.32 1778.82,1379.56C1778.82,1365.8 1789.99,1354.63 1803.75,1354.63M1803.75,1354.63C1810.49,1354.99 1816.43,1358.03 1820.64,1362.67C1824.67,1367.13 1827.03,1373.08 1826.74,1379.56C1826.53,1385.82 1823.75,1391.34 1819.55,1395.36C1815.43,1399.29 1809.88,1401.75 1803.75,1401.67C1797.59,1401.79 1791.99,1399.39 1787.85,1395.46C1783.6,1391.44 1780.8,1385.86 1780.58,1379.56C1780.3,1373.04 1782.7,1367.05 1786.78,1362.59C1791.01,1357.95 1796.99,1354.95 1803.75,1354.63Z" style="fill:rgb(116,173,124);"/>
            </g>
            <g transform="matrix(1,0,0,1,473.226,55.0527)">
                <path d="M980.69,757.949C980.519,756.906 979.895,757.082 979.14,757.716C978.035,758.643 976.642,760.68 976.15,761.229C973.239,764.482 970.107,768.74 968.563,773.35C967.423,776.751 967.291,780.288 968.454,783.817C972.872,797.219 978.447,807.573 982.881,819.645C985.437,826.601 987.428,834.058 988.611,843.11C991.521,865.374 983.011,883.6 969.462,896.366C956.103,908.954 937.08,914.634 918.92,912.795C907.815,912.634 898.669,921.52 898.509,932.624C898.349,943.728 907.234,952.874 918.338,953.034C946.267,951.019 973.677,937.727 990.541,915.179C1005.68,894.939 1013.59,868.715 1004.5,839.618C1002.24,832.395 999.708,826.216 996.793,820.558C989.632,806.66 980.986,796.396 973.172,781.795C971.882,779.383 971.603,776.79 971.999,774.179C972.675,769.718 974.918,765.349 977.059,761.911C977.447,761.289 978.458,759.054 979.381,757.957C979.911,757.327 980.4,757.116 980.69,757.949Z" style="fill:rgb(116,173,124);"/>
            </g>
            <g transform="matrix(1,0,0,1,473.226,55.0527)">
                <path d="M918.647,820.923L933.643,839.578C938.375,844.688 945.456,847.969 953.397,850.271C964.319,853.436 976.632,853.956 986.456,853.434C1015.59,851.884 1023.61,835.581 1051.6,824.29C1058.27,821.6 1066.25,819.838 1076.43,818.324C1087.15,815.439 1093.52,804.39 1090.63,793.666C1087.75,782.941 1076.7,776.577 1065.97,779.462C1053.21,784.527 1043.48,789.445 1035.64,794.971C1023.12,803.787 1015.52,812.32 1007.79,820.265C1001.39,826.834 995.293,832.885 983.546,836.306C975.38,838.685 964.915,840.694 955.097,840.184C948.29,839.832 941.959,838.64 937.199,835.428L918.647,820.923Z" style="fill:rgb(116,173,124);"/>
            </g>
        </g>
    </g>
</svg>
